<svg width="1824" height="608" viewBox="0 0 1824 608" fill="none" xmlns="http://www.w3.org/2000/svg">
<g clip-path="url(#clip0_1_2)">
<mask id="mask0_1_2" style="mask-type:luminance" maskUnits="userSpaceOnUse" x="0" y="0" width="1824" height="608">
<path d="M1824 0H0V608H1824V0Z" fill="white"/>
</mask>
<g mask="url(#mask0_1_2)">
<path d="M441.178 55.512C401.287 34.8079 357.003 24.0001 312.059 24.0001C267.116 24.0001 222.832 34.8079 182.941 55.512L312.05 184.621L431.379 303.95L560.507 174.822C533.881 123.775 492.23 82.1294 441.178 55.512Z" fill="#FF9500"/>
<path d="M312 423.374L192.689 304.066L63.56 433.173C97.8055 499.064 156.823 548.653 227.63 571.031C298.437 593.409 375.234 586.743 441.126 552.5L312 423.374Z" fill="#4CD964"/>
<path d="M560.508 174.936L431.379 304.064L312.049 423.374L441.179 552.5C507.064 518.248 556.646 459.23 579.02 388.425C601.394 317.62 594.728 240.827 560.488 174.936H560.508Z" fill="#007AFF"/>
<path d="M182.889 55.512C45.741 126.866 -7.67401 295.851 63.56 433.058L192.688 303.95L312 184.62L182.889 55.512Z" fill="#FF3B30"/>
<path d="M312.033 184.679L192.711 304.001L312.033 423.323L431.355 304.001L312.033 184.679Z" fill="#393A3D"/>
<path opacity="0.15" d="M227.625 338.962L64.18 432.514L192.689 304.026L227.625 338.962Z" fill="black"/>
<path opacity="0.15" d="M277.08 219.557L183.528 56.112L312.037 184.621L277.08 219.557Z" fill="black"/>
<path opacity="0.15" d="M396.442 269.034L559.887 175.482L431.379 303.991L396.442 269.034Z" fill="black"/>
<path opacity="0.15" d="M346.989 388.437L440.541 551.882L312.031 423.374L346.989 388.437Z" fill="black"/>
<path d="M312.024 206.956L409.076 304.01L312.024 401.039L214.993 304.01L312.024 206.956Z" fill="white"/>
<path d="M733.75 411H696V231.25H733.75V317.75L804.5 231.25H849.75L777.5 319.25L850.25 411H802L733.75 321.75V411Z" fill="black"/>
<path d="M999.75 231.25V262.5H937.75C924.25 262.5 913.792 266.042 906.375 273.125C898.958 280.208 895.25 290.667 895.25 304.5H999.75V335.75H895.25C895.25 350.75 898 361.292 903.5 367.375C909 373.458 914.125 377.042 918.875 378.125C925.09 379.345 931.418 379.89 937.75 379.75H999.75V411H936.25C924.25 411 914.042 409.958 905.625 407.875C897.208 405.792 888.75 401.583 880.25 395.25C870.353 386.976 862.88 376.178 858.625 364C854.285 351.288 852.13 337.932 852.25 324.5L852.75 313.75C852.737 307.363 853.407 300.994 854.75 294.75C856.018 288.81 857.689 282.963 859.75 277.25C861.544 272.174 863.891 267.312 866.75 262.75C870.164 257.683 874.102 252.991 878.5 248.75C883.76 243.526 890.187 239.628 897.25 237.375C903.957 235.107 910.862 233.475 917.875 232.5C924.3 231.667 930.771 231.249 937.25 231.25H999.75ZM923.044 215.75H906.044L926.5 181H955.75L977.066 215.75H960.066L941.25 197.75L923.044 215.75Z" fill="black"/>
<path d="M1185.25 411H1146V263H1088.5V231.75H1243.25V263H1185.25V411Z" fill="black"/>
<path d="M1255.49 281.5C1259.32 268.336 1264.49 258.586 1270.99 252.25C1277.49 245.914 1283.49 241.289 1288.99 238.375C1294.5 235.457 1300.33 233.192 1306.37 231.625C1311.74 230.176 1317.21 229.131 1322.74 228.5C1328.31 227.966 1333.9 227.715 1339.49 227.75C1351.49 227.75 1360.95 228.625 1367.87 230.375C1374.78 232.125 1379.53 233.417 1382.12 234.25C1385.92 235.644 1389.6 237.359 1393.12 239.375C1397.85 241.943 1402.11 245.28 1405.74 249.25C1414.24 257.418 1420.41 268.043 1424.24 281.125C1428.07 294.156 1430 307.669 1429.99 321.25C1429.97 334.911 1428.03 348.501 1424.24 361.625C1420.41 375.043 1414.12 385.835 1405.37 394C1396.71 402.12 1386.06 407.812 1374.49 410.5C1363.2 413.266 1351.62 414.693 1339.99 414.75C1329.13 414.786 1318.31 413.527 1307.74 411C1304.47 410.398 1301.25 409.52 1298.12 408.375C1294.38 406.912 1290.75 405.2 1287.24 403.25C1282.48 400.608 1278.07 397.374 1274.12 393.625C1269.63 389.457 1265.84 384.605 1262.87 379.25C1259.78 373.75 1256.87 366.167 1254.12 356.5C1251.37 346.833 1250 334.917 1249.99 320.75C1249.91 307.469 1251.77 294.248 1255.49 281.5ZM1293.99 294.43C1291.91 303.089 1290.91 311.97 1290.99 320.875C1290.99 330.359 1292.62 341.545 1295.87 354.434C1299.12 367.323 1305.58 375.474 1315.24 378.887C1324.91 382.297 1333.08 384.001 1339.74 384C1346.09 384.022 1352.41 383.097 1358.49 381.254C1372.83 376.098 1381.74 365.203 1385.24 348.57C1387.62 339.787 1388.79 330.723 1388.74 321.625C1388.74 311.977 1387.95 304.118 1386.37 298.047C1384.78 291.976 1383.7 288.11 1383.12 286.447C1382.06 283.818 1380.81 281.274 1379.37 278.838C1377.21 275.135 1374.47 271.806 1371.24 268.982C1368.05 266.006 1364.26 263.75 1360.12 262.369C1356.65 261.233 1353.09 260.358 1349.49 259.752C1340.13 258.29 1330.55 258.974 1321.49 261.752C1308.49 266.404 1299.33 277.297 1293.99 294.43Z" fill="black"/>
<path d="M1470.74 411H1430.74L1506.24 231.25H1546.24L1622.99 411H1580.99L1564.49 368H1486.24L1470.74 411ZM1498.49 336.25H1552.24L1524.99 267.5L1498.49 336.25ZM1523.99 214.75H1506.74L1530.74 180H1566.74L1523.99 214.75Z" fill="black"/>
<path d="M1674.49 411H1635.74V231.25H1683.74L1756.99 360.75L1755.49 231.25H1793.49V411H1749.99L1672.99 275.25L1674.49 411Z" fill="black"/>
<path d="M991.083 192H973.833L997.833 157.25H1033.83L991.083 192Z" fill="black"/>
</g>
</g>
<defs>
<clipPath id="clip0_1_2">
<rect width="1824" height="608" fill="white"/>
</clipPath>
</defs>
</svg>
